<?xml version="1.0" encoding="UTF-8"?>
<svg id="Capa_1" xmlns="http://www.w3.org/2000/svg" version="1.1" viewBox="0 0 60 60">
  <!-- Generator: Adobe Illustrator 30.3.0, SVG Export Plug-In . SVG Version: 2.1.3 Build 182)  -->
  <defs>
    <style>
      .st0 {
        fill: #c5a059;
      }
    </style>
  </defs>
  <path class="st0" d="M13.74,33.26c-.37.82-1.79,2.9-2.59,2.62-.04-.81-.07-1.52-.4-2.25-.9,1.2-1.18,2.84-.4,4.05.89,1.38,3.1.97,4.68.66,2.51-.49,4.74-.96,7.13.31.25.13.42.3.5.61l-1.96.48c-.85.21-1.66.47-2.4.94-1.07.67-2.15,1.23-3.31,1.73-.43.18-.67.53-.6,1.01l.3,1.94c.1.68.18,1.62-.17,1.85-.08.05-.32.03-.42-.03-1.64-.85-2.86-2.22-3.63-3.89l-1.01-2.18c-.18-.38-.52-.63-.86-1.01l-.5,1.11c-.04.08-.14.2-.21.22-.32.1-.79-1.11-.82-1.81l-.07-1.8c-1.04-2.84-.31-6.01,1.92-8.12l-1.19.16c.15-.45.33-.83.56-1.21.7-1.18,1.21-2.28.73-3.64-.41-1.17,1.83-1.08,3.24-.66l2.73.81,1.34-.71.47-.8,1.35-.02.43-.71h1.51s.58-.7.58-.7l1.82.14.48-.72,1.84.19c.2-.16.38-.39.57-.65l1.73.34c.69.13.51-.78,1.25-.56l1.73.52.73-.62,2.16.78c.24-.1.46-.25.73-.46l1.98.84c.34.15.62-.56,1.18-.19l1.29.85.62-.28.97.67c.47.32.61-.35,1.13.1l.86.74.62-.25,1.42,1.03c.91.67,1.87,1.18,2.89,1.69,1.42.71,2.67,1.59,3.79,2.72,1.25,1.27,2.67,2.2,4.41,2.63.38.1.74.42.72.81-.07,1.01-1.75,1.13-2.88,1.12l-.26.68c-.4,1.06-.86.93-.85.84.04-.27.44-.74.51-1.55-.32.15-.49.39-.6.69-.24.66-.74,1.31-1.17,1.03.26-.34.45-.63.6-.99l.33-.8-1.86-.21c-.14.32-.32.51-.69.53l-1.2-.2-2.52-.27-4.48-.58c-1.1.95-2.26,1.74-3.61,2.23s-3.85.91-3.37-.09l.78-1.64.78-1.47-5-1.02c-2.52-.51-5.01-.79-7.55-.86-.56.7-1.13,1.32-1.78,1.89-.8.62-1.62,1.13-2.61,1.35l-.33-.07c-.07-.02-.1-.23-.1-.3l.07-1.56c.02-.36.06-.66.21-1.04-1.15.25-2.26.54-3.36.93l-.92,2.04ZM42.05,27.93c-.68.68-.99,1.29-1.03,2.09-.03.79.8,1.39.55,1.73l-.45.6,1.87.25c-.59-.73-.9-1.55-1.05-2.45-.21-1.33,1.37-2.25,2.52-2.8-.28-.13-.61-.21-.88-.15l-.99.22-.03-.71-1.22.31.03-.62-1.12.34v-.75s-1.54.5-1.54.5v-.8s-1.5.53-1.5.53l.08-.84-1.42.62.02-.76c-.2.03-.46.08-.62.16l-.87.44-.06-.87-1.55.72-.06-.8c-.11-.01-.38.05-.51.11l-1.05.56-.1-.79c-.31.06-.58.18-.85.33l-.69.38-.11-.5c-.02-.08-.05-.28-.13-.29-.06,0-.23.03-.29.06l-1.1.64-.18-.72-1.05.59c-.07.04-.3.18-.31.1l-.07-.29c-.02-.08-.04-.22-.1-.22-.04,0-.19.03-.24.06l-.83.57-.24-.53-.96.68-.22-.5c-.55.16-1.07.86-1.12.61l-.03-.17c-.01-.07-.08-.26-.15-.24-.05.01-.18.07-.23.1l-.86.62-.26-.53-1.11.8-.12-.31c-.02-.05-.2-.11-.25-.06l-.83.64-.25-.33-.74.64-.27-.28-.66.62-.42-.15-.75.63-.3-.16-.72.61c-.16-.12-.3-.12-.41-.02l-.53.5c-.28-.03-.43.01-.58.21s-.4.29-.58.43c-1.69,1.26-3.35,3.13-3.25,5.34.43-2.32,1.97-3.94,3.96-5.19,5.73-3.59,14.06-4.03,20.67-3.12,2.76.38,5.44.9,8.13,1.63ZM49.82,32.8l3.1.29c1.09.1,2.25-.45,1.99-.53l-.21-.06c-1.23.1-2.41.03-3.63-.18-.95-.17-1.84-.25-2.81-.21-.09,0-.28-.14-.25-.24.33-1.14,0-2.4-.94-3.13-.58-.45-1.22-.74-1.88-1.05-.59.33-1.09.66-1.56,1.1-1.04.95-.86,2.15.02,3.21.29.35.68.56,1.15.67-.31-.71-.23-1.36.11-1.99.17-.31.37-.59.76-.72-.16.53-.33.95-.36,1.44-.05.68.33,1.26.99,1.45,1.49.43,1.93-.21,3.53-.06ZM29.89,30.21l5.71,1.18c1.16-.96,2.74.4,4.08-.95l-5.36-.82c-2.07-.32-4.05-.75-6.13-1-1.52-.19-2.97-.23-4.5-.24-3.49,0-7.91.71-10.84,2.57-.7.45-1.34.93-1.82,1.6.82-.6,1.59-1.14,2.51-1.52,1.4-.58,2.78-1.05,4.29-1.28,3.94-.59,8.11-.36,12.07.46ZM49.92,30.51c0-.29-.23-.52-.52-.52s-.52.23-.52.52.23.52.52.52.52-.23.52-.52ZM51.12,31.25c.17-.28-.16-.61-.41-.57-.06.11-.03.37.05.49.05.09.3.17.36.08ZM18.7,38.87c-1.12.06-2.07.36-3.08.61l-2.31.57c-1.17.14-2.32.03-3.31-.62-1.47-.95-2.37-2.41-2.81-4.09-.06,1.76.83,3.3,2.01,4.52,1.52,1.57,3.42,1.3,5.35.48,1.39-.59,2.75-1.09,4.16-1.47Z"/>
</svg>