<?xml version="1.0" encoding="UTF-8"?>
<svg id="Capa_1" xmlns="http://www.w3.org/2000/svg" version="1.1" viewBox="0 0 60 60">
  <!-- Generator: Adobe Illustrator 30.3.0, SVG Export Plug-In . SVG Version: 2.1.3 Build 182)  -->
  <defs>
    <style>
      .st0 {
        fill: #fff;
      }

      .st1 {
        fill: #c5a059;
      }
    </style>
  </defs>
  <path d="M103.48,31.2c-.41.91-1.98,3.22-2.87,2.91-.05-.9-.08-1.69-.45-2.5-1,1.33-1.31,3.15-.44,4.5.99,1.53,3.43,1.08,5.19.74,2.79-.54,5.26-1.06,7.92.35.28.15.46.34.55.68l-2.18.53c-.94.23-1.84.52-2.66,1.04-1.19.75-2.38,1.37-3.67,1.92-.47.2-.75.59-.67,1.12l.33,2.15c.12.76.2,1.8-.19,2.05-.09.06-.35.03-.46-.03-1.82-.95-3.18-2.46-4.03-4.31l-1.12-2.42c-.19-.42-.57-.7-.95-1.12l-.56,1.23c-.04.09-.15.22-.23.25-.35.12-.88-1.24-.91-2l-.08-1.99c-1.15-3.15-.34-6.67,2.13-9.01l-1.32.18c.16-.5.37-.92.62-1.34.77-1.31,1.34-2.53.81-4.04-.46-1.3,2.03-1.2,3.59-.73l3.03.9,1.48-.79.52-.89,1.5-.02.47-.79h1.68s.65-.78.65-.78l2.02.15.53-.79,2.05.22c.22-.17.43-.44.63-.73l1.92.37c.77.15.57-.86,1.39-.62l1.92.57.81-.69,2.4.87c.26-.11.51-.28.81-.51l2.2.93c.38.16.69-.62,1.31-.22l1.43.94.69-.31,1.08.75c.52.36.67-.39,1.25.11l.95.82.69-.27,1.57,1.14c1.01.74,2.08,1.31,3.21,1.87,1.58.79,2.96,1.76,4.21,3.02,1.39,1.41,2.96,2.44,4.89,2.92.42.11.82.46.79.9-.07,1.12-1.94,1.25-3.2,1.25l-.28.75c-.45,1.18-.95,1.03-.94.94.04-.29.49-.82.56-1.72-.36.16-.55.44-.67.77-.27.74-.82,1.45-1.3,1.15.29-.38.5-.69.67-1.09l.37-.89-2.06-.24c-.16.36-.36.57-.77.59l-1.34-.23-2.79-.3-4.97-.65c-1.22,1.05-2.51,1.93-4.01,2.47s-4.27,1.01-3.74-.1l.86-1.82.87-1.63-5.54-1.13c-2.79-.57-5.55-.87-8.38-.96-.63.78-1.25,1.46-1.97,2.1-.89.69-1.8,1.25-2.9,1.49l-.37-.08c-.08-.02-.11-.25-.11-.34l.08-1.73c.02-.4.07-.73.24-1.15-1.27.27-2.5.6-3.72,1.03l-1.02,2.26ZM134.88,25.29c-.76.75-1.1,1.43-1.14,2.31-.03.88.89,1.54.61,1.92l-.5.67,2.08.27c-.66-.81-1-1.71-1.16-2.72-.24-1.47,1.52-2.49,2.8-3.11-.32-.15-.68-.24-.98-.17l-1.1.25-.03-.78-1.35.34.03-.69-1.24.37v-.83s-1.71.55-1.71.55v-.89s-1.67.59-1.67.59l.09-.93-1.58.69.02-.84c-.22.03-.51.09-.69.18l-.96.48-.07-.97-1.71.8-.07-.89c-.12-.01-.43.05-.57.13l-1.16.63-.11-.88c-.34.07-.65.2-.94.37l-.76.42-.12-.56c-.02-.09-.05-.31-.14-.32-.07,0-.26.03-.32.07l-1.22.71-.2-.8-1.17.65c-.08.04-.33.2-.35.12l-.07-.33c-.02-.09-.05-.24-.11-.25-.05,0-.21.03-.26.07l-.92.63-.27-.58-1.06.76-.25-.55c-.61.17-1.19.96-1.25.68l-.04-.19c-.02-.07-.09-.29-.16-.27-.06.01-.2.08-.25.11l-.95.69-.29-.59-1.24.88-.13-.34c-.02-.06-.22-.12-.28-.07l-.92.71-.28-.37-.82.71-.3-.31-.74.68-.47-.17-.83.7-.34-.17-.8.68c-.18-.13-.34-.13-.45-.02l-.58.55c-.31-.04-.48.02-.64.23s-.44.32-.65.48c-1.87,1.39-3.72,3.47-3.6,5.92.48-2.58,2.18-4.37,4.4-5.75,6.36-3.98,15.6-4.47,22.93-3.46,3.07.42,6.04,1,9.02,1.81ZM143.51,30.69l3.44.32c1.21.11,2.49-.5,2.21-.58l-.24-.07c-1.36.11-2.68.03-4.03-.2-1.05-.19-2.04-.27-3.12-.23-.1,0-.31-.15-.28-.27.37-1.26,0-2.66-1.05-3.48-.64-.5-1.36-.82-2.08-1.16-.65.37-1.21.73-1.73,1.22-1.15,1.06-.96,2.39.02,3.57.32.38.75.63,1.27.75-.34-.79-.26-1.51.12-2.21.19-.35.41-.66.85-.79-.17.59-.37,1.05-.4,1.59-.05.75.37,1.4,1.1,1.61,1.65.48,2.14-.23,3.92-.07ZM121.39,27.82l6.34,1.31c1.29-1.06,3.04.45,4.52-1.05l-5.95-.91c-2.3-.35-4.49-.83-6.8-1.11-1.69-.21-3.29-.26-5-.26-3.87,0-8.77.78-12.02,2.86-.78.5-1.49,1.04-2.02,1.77.91-.66,1.77-1.27,2.79-1.69,1.55-.64,3.09-1.17,4.76-1.42,4.37-.65,8.99-.4,13.39.51ZM143.62,28.15c0-.32-.26-.58-.58-.58s-.58.26-.58.58.26.58.58.58.58-.26.58-.58ZM144.95,28.97c.19-.31-.17-.68-.45-.63-.07.12-.03.41.06.54.06.09.34.19.4.09ZM108.98,37.42c-1.24.06-2.3.4-3.42.68l-2.57.63c-1.3.16-2.57.03-3.68-.68-1.63-1.05-2.63-2.68-3.12-4.54-.07,1.95.92,3.66,2.23,5.01,1.69,1.74,3.8,1.44,5.94.53,1.54-.65,3.06-1.21,4.61-1.63Z"/>
  <g>
    <path class="st1" d="M119.56-43.05c.36,1.76-1.06,3.12-2.28,3.16-3.92.15-2.36-4.83-4.06-9.68,3.16.6,5.7,3.35,6.34,6.52Z"/>
    <path class="st1" d="M113.38-50.79l.74-4.55.63-3.55c.21-1.21,1.92-1.88,2.82-1.64,1.29.34,2.23,1.73,1.9,3.32-.6,2.88-3.01,5.26-6.09,6.42Z"/>
    <path class="st1" d="M97.64-50.98c-3.92-1.41-7.74-6.08-5.67-8.87.58-.78,1.97-1.27,2.99-.72.84.45,1.44,1.98,1.46,2.94l1.22,6.65Z"/>
    <path class="st1" d="M96.38-42.15c-.26,1.55-1.44,2.68-2.62,2.49-1.24-.2-2.49-1.53-2.31-2.98.4-3.26,3.1-5.8,6.19-6.94l-1.26,7.43Z"/>
    <path class="st1" d="M95.49-50.5c-2.04,1.19-4.01,2.27-6.07,2.33-1.8.05-2.94-1.33-2.88-2.73.07-1.64,1.52-2.77,3.4-2.36,2.02.44,3.87,1.49,5.56,2.75Z"/>
    <path class="st1" d="M124.51-49.31c-1.08,2.44-5.37,1.22-8.86-1.1l5.77-2.64c.65-.3,2.33.3,2.81.81.55.59.65,2.13.29,2.93Z"/>
    <path class="st1" d="M105.69-60.93c-1.72-2.06-2.76-4.05-2.59-6.34.12-1.66,1.69-2.68,2.99-2.52,1.56.19,2.22,1.55,2.22,3.28-.61,1.94-1.35,3.56-2.61,5.58Z"/>
    <path class="st1" d="M107.88-35.16c.47,2.01-.69,3.44-2.14,3.54s-3.01-1.02-2.88-2.94c.15-2.12,1.22-4.07,2.59-5.96,1.05,1.83,1.99,3.45,2.43,5.36Z"/>
    <path class="st1" d="M112.85-40.81c1.18.46,1.6,2.29,1.2,3.07-.56,1.11-1.95,1.52-3.21.97-2.64-1.16-4.14-3.67-4.57-6.6l6.58,2.56Z"/>
    <path class="st1" d="M112.58-59.51l-6.34,2.5c.65-2.86,1.87-5.27,4.09-6.58,1.27-.75,3.11-.39,3.56.76.52,1.32.09,2.78-1.31,3.33Z"/>
    <path class="st1" d="M100.43-36.69c-1.1.66-2.72.32-3.27-.48s-.34-2.85.77-3.3l6.67-2.69c-.34,2.6-1.74,5.01-4.17,6.47Z"/>
    <path class="st1" d="M104.64-57.16l-6.05-2.52c-1.34-.56-2.06-1.88-1.71-2.88.5-1.42,1.94-2.06,3.36-1.33,2.36,1.21,3.95,3.89,4.39,6.73Z"/>
    <path class="st1" d="M103.64-46.22c-1.11,1.95-3.12,2.47-5.25,2.86.22-2.18,1.3-4.31,3.04-5.67.43-.34,1.77.08,2.05.52s.47,1.75.16,2.29Z"/>
    <path class="st1" d="M103.59-54.73c.38.39.25,1.89.07,2.4-.21.59-1.71,1.23-2.24.81-1.88-1.46-2.67-3.5-2.94-5.68,1.96.47,3.7,1.04,5.11,2.47Z"/>
    <path class="st1" d="M112.57-56.93c-.74,3.49-2.72,6.54-4.78,5.29-.66-.4-1.12-2.07-.59-2.78,1.26-1.71,3.12-2.33,5.38-2.51Z"/>
    <path class="st1" d="M112.65-43.71c-2.31-.13-3.89-.76-5.33-2.31-.5-.54-.33-2.37.25-2.78.8-.56,2.1-.33,3.04.29l2.03,4.8Z"/>
    <circle class="st1" cx="105.34" cy="-50.27" r="1.96"/>
  </g>
  <g>
    <g>
      <path d="M-74.54,54.61c-.78.88-1.98.84-2.94.52-2.84-.94-2.05-4.6-.45-7.67l1.4-2.7,2.53,6.2c.43,1.06.28,2.71-.54,3.64Z"/>
      <path d="M-74.5,38.87l-2.1,5.23c-2.27-3.28-4.34-8.73-1.35-10.26,1.07-.55,2.57-.5,3.34.64s.69,2.95.11,4.39Z"/>
      <path d="M-77.1,44.64c-3.49,1.61-8.38,3.92-10.16,1.42-.69-.96-.45-2.21.18-3.15,1.31-1.95,4.5-1.08,7.07.07l2.91,1.65Z"/>
      <path d="M-69.1,47.02c-2.55-.38-4.72-1.37-7.06-2.53,2.24-1.64,4.72-2.69,7.48-2.85,1.85-.11,2.97,1.2,2.98,2.84s-1.44,2.84-3.41,2.54Z"/>
      <circle cx="-83.68" cy="37.82" r="1.73"/>
      <circle cx="-69.93" cy="51.08" r="1.7"/>
      <circle cx="-70.51" cy="37.94" r="1.68"/>
      <circle cx="-83.68" cy="51.18" r="1.67"/>
    </g>
    <g>
      <path d="M-37.56,49.01c.21,1.04-.63,1.85-1.35,1.88-2.33.09-1.4-2.87-2.41-5.75,1.88.35,3.39,1.99,3.77,3.87Z"/>
      <path d="M-41.23,44.41l.44-2.7.37-2.11c.13-.72,1.14-1.11,1.67-.98.77.2,1.33,1.03,1.13,1.97-.36,1.71-1.79,3.13-3.62,3.81Z"/>
      <path d="M-50.59,44.3c-2.33-.83-4.6-3.61-3.37-5.27.34-.46,1.17-.75,1.78-.43.5.27.85,1.18.87,1.75l.73,3.95Z"/>
      <path d="M-51.33,49.55c-.16.92-.86,1.59-1.56,1.48-.74-.12-1.48-.91-1.37-1.77.24-1.94,1.84-3.44,3.68-4.12l-.75,4.42Z"/>
      <path d="M-51.86,44.59c-1.21.71-2.38,1.35-3.61,1.39-1.07.03-1.75-.79-1.71-1.62.04-.97.9-1.64,2.02-1.4,1.2.26,2.3.88,3.3,1.63Z"/>
      <path d="M-34.62,45.29c-.64,1.45-3.19.73-5.27-.65l3.43-1.57c.39-.18,1.39.18,1.67.48.32.35.38,1.26.17,1.74Z"/>
      <path d="M-45.81,38.39c-1.02-1.22-1.64-2.41-1.54-3.77.07-.98,1-1.59,1.77-1.5.93.11,1.32.92,1.32,1.95-.36,1.15-.8,2.11-1.55,3.32Z"/>
      <path d="M-44.5,53.7c.28,1.19-.41,2.04-1.27,2.1s-1.79-.61-1.71-1.75c.09-1.26.73-2.42,1.54-3.54.62,1.09,1.18,2.05,1.45,3.18Z"/>
      <path d="M-41.55,50.34c.7.27.95,1.36.71,1.83-.33.66-1.16.9-1.91.57-1.57-.69-2.46-2.18-2.72-3.92l3.91,1.52Z"/>
      <path d="M-41.71,39.23l-3.77,1.48c.38-1.7,1.11-3.13,2.43-3.91.75-.44,1.85-.23,2.12.45.31.78.05,1.65-.78,1.98Z"/>
      <path d="M-48.93,52.79c-.66.39-1.62.19-1.94-.28s-.2-1.69.46-1.96l3.97-1.6c-.2,1.54-1.03,2.98-2.48,3.85Z"/>
      <path d="M-46.43,40.63l-3.59-1.49c-.8-.33-1.22-1.12-1.01-1.71.29-.84,1.16-1.22,2-.79,1.4.72,2.35,2.31,2.61,4Z"/>
      <path d="M-47.02,47.13c-.66,1.16-1.85,1.47-3.12,1.7.13-1.3.77-2.56,1.81-3.37.26-.2,1.05.04,1.22.31s.28,1.04.1,1.36Z"/>
      <path d="M-47.05,42.07c.23.23.15,1.12.04,1.43-.13.35-1.02.73-1.33.48-1.12-.87-1.59-2.08-1.74-3.38,1.17.28,2.2.62,3.04,1.47Z"/>
      <path d="M-41.72,40.77c-.44,2.07-1.62,3.89-2.84,3.15-.39-.24-.66-1.23-.35-1.65.75-1.02,1.85-1.39,3.2-1.49Z"/>
      <path d="M-41.67,48.62c-1.37-.08-2.31-.45-3.17-1.37-.3-.32-.2-1.41.15-1.65.47-.33,1.25-.19,1.81.17l1.21,2.85Z"/>
      <circle cx="-46.01" cy="44.73" r="1.17"/>
    </g>
    <g>
      <path d="M-77.18,13.82l-2.5-5.48c-.61-1.34-.02-2.74,1.07-3.6.85-.68,2-.7,2.85-.15s1.44,1.91,1.01,3.02l-2.43,6.22Z"/>
      <path d="M-75.93,28.09c-1.06.58-2.28.21-2.97-.43-2.1-1.95,0-5.38,1.73-8.72l2.34,5.56c.51,1.22.1,2.93-1.11,3.59Z"/>
      <path d="M-79.8,20.58c-.21,1.6-1.39,2.99-2.74,3.63-1.47.69-3.14-.2-3.56-1.65-.39-1.36.55-2.79,2.06-3.22,1.7-.47,2.93-1.39,4.72-2.43l-.48,3.67Z"/>
      <path d="M-79.35,15.63c-1.88-1.05-3.31-1.88-5.07-2.56-1.27-.49-1.96-1.67-1.65-2.94.28-1.13,1.42-2.13,2.9-1.89,2.52.41,3.94,4.11,3.81,7.39Z"/>
      <path d="M-74.12,17.5c2.79,2.15,5.47,1.67,5.66,4.22.08,1.13-.62,2.39-1.89,2.61-2.94.51-5.15-3.52-4.79-7.16.27.02.83.18,1.02.32Z"/>
      <path d="M-75.06,15.65c-.73-3.58,1.73-7.97,4.51-7.37,1.13.24,1.81,1.13,1.91,2.11.1,1.07-.47,2.1-1.42,2.68-1.81.45-3.09,1.26-5,2.58Z"/>
      <path d="M-81.18,16.45l-4.79,2.09c-.67.29-2.1.27-2.68-.13-1.3-.91-1.23-2.54-.56-3.61s2.44-1.54,3.68-.83l4.35,2.49Z"/>
      <path d="M-66.25,18.31c-.92.65-2.44.41-3.33,0l-3.99-1.87,2.81-1.74c1.34-.83,3-1.57,4.54-.49,1.2.83,1.37,3.12-.03,4.12Z"/>
      <circle cx="-77.27" cy="16.7" r="1.2"/>
    </g>
    <g>
      <path d="M-36.75,25.42c-5.08-.53-7.94-3.35-8.84-8.22,3.51-.18,6.53,1.9,7.88,4.93l.96,3.29Z"/>
      <path d="M-39.31,13.2c-1.79,1.55-3.75,2.56-6.21,3.01.46-4.88,3.28-8.02,8.34-8.69.06,2.09-.65,4.05-2.13,5.68Z"/>
      <path d="M-46.42,16.2c-1.81-.15-3.07-.56-4.56-1.19-2.25-1.65-3.95-3.92-4.4-6.95,3.11-.24,5.92,1.45,7.42,4.15.65,1.25,1.05,2.21,1.53,3.99Z"/>
      <path d="M-46.37,17.05c-.1,4.96-3.6,7.8-8.43,8.89.59-5.21,3.27-7.86,8.43-8.89Z"/>
      <circle cx="-45.59" cy="26.06" r="2.54"/>
      <path d="M-46.53,9.96c-1.61-.31-2.46-1.9-2.1-3.2.42-1.48,2.03-2.42,3.49-1.67,1.15.59,1.67,1.9,1.32,3.1-.28.99-1.38,2.02-2.71,1.77Z"/>
      <circle cx="-55.34" cy="16.7" r="2.5"/>
      <circle cx="-36.4" cy="16.28" r="2.47"/>
    </g>
  </g>
  <path d="M149.87,33.2c-.43,16.8-17.17,29.02-33.32,24.68-5.1-1.31-9.77-4.21-13.19-8.19,3.69,3.68,8.36,6.31,13.37,7.45,15.87,3.78,31.57-7.77,33.14-23.94h0Z"/>
  <path d="M99.36,18.74c8.01-16.38,30.47-19.63,43.03-6.51,3.9,4.06,6.5,9.37,7.2,14.95-1.11-5.47-3.82-10.55-7.74-14.4-12.59-12.47-33.73-9.31-42.49,5.97h0Z"/>
  <g>
    <path d="M117.53,6.86c2.23-.36,4.48-.39,6.72-.07-2.23.37-4.48.38-6.72.07h0Z"/>
    <path d="M112.87,8.36c6.88-.24,13.73-.16,20.6.27-6.87.25-13.75.15-20.6-.27h0Z"/>
    <path d="M108.98,10.18c9.44-.25,19.82-.17,29.26.23-9.43.26-19.83.17-29.26-.23h0Z"/>
    <path d="M105.45,12.56c10.78-.35,22.65-.37,33.44-.06-10.78.35-22.65.37-33.44.06h0Z"/>
    <path d="M104.23,13.63c11.43,0,24.48.03,35.89.2-11.95.51-23.94.45-35.89-.2h0Z"/>
    <path d="M102.96,15.82c12.27-.34,25.77-.36,38.04-.05-12.27.34-25.77.36-38.04.05h0Z"/>
    <path d="M131.89,17.61c3.46-.38,6.93-.43,10.4-.12-3.46.38-6.94.42-10.4.12h0Z"/>
    <path d="M102.06,17.32c3.48-.27,6.94-.2,10.4.21-3.47.27-6.95.2-10.4-.21h0Z"/>
    <path d="M132.73,18.81c3.44-.34,6.88-.34,10.32,0-3.44.34-6.88.34-10.32,0h0Z"/>
    <path d="M100.94,18.81c2.24-.34,4.48-.34,6.72,0-2.24.34-4.48.34-6.72,0h0Z"/>
    <path d="M136.86,20.31c2.29-.34,4.59-.34,6.88,0-2.29.34-4.59.34-6.88,0h0Z"/>
    <path d="M141.22,21.8c1.11-.34,2.24-.34,3.35,0-1.11.34-2.24.34-3.35,0h0Z"/>
    <path d="M142.66,23.29c1.1-.34,2.21-.34,3.3,0-1.1.34-2.21.34-3.3,0h0Z"/>
    <path d="M111.28,31.61c3.9-.34,7.8-.35,11.7,0-3.9.35-7.8.34-11.7,0h0Z"/>
    <path d="M108.53,33.74c4.59-.34,9.18-.35,13.77,0-4.59.34-9.18.34-13.77,0h0Z"/>
    <path d="M130.69,35.37c5.35-.31,10.7-.29,16.05.07-5.35.32-10.71.29-16.05-.07h0Z"/>
    <path d="M114.36,35.38c3.49-.33,6.98-.32,10.47.04-3.49.33-6.98.31-10.47-.04h0Z"/>
    <path d="M114.36,36.73c10.33-.33,21.69-.33,32.02,0-10.33.33-21.69.32-32.02,0h0Z"/>
    <path d="M114.19,38.57c10.32-.44,21.67-.56,32-.35-10.31.44-21.68.56-32,.35h0Z"/>
    <path d="M114.65,40.45c10.02-.33,21.06-.33,31.08,0-10.02.33-21.06.33-31.08,0h0Z"/>
    <path d="M113.58,42.72c10.06-.33,21.13-.34,31.19-.01-10.06.33-21.13.34-31.19.01h0Z"/>
    <path d="M111.99,44.46c10.31-.23,21.67-.12,31.97.31-10.32.23-21.66.12-31.97-.31h0Z"/>
    <path d="M108.27,46.72c11.22-.33,23.56-.34,34.78-.02-11.22.34-23.56.34-34.78.02h0Z"/>
    <path d="M107.19,48.71c10.77-.33,22.62-.35,33.38-.02-10.77.34-22.62.34-33.38.02h0Z"/>
    <path d="M107.96,50.57c10.3-.49,20.63-.41,30.92.26-9.98,0-20.94-.08-30.92-.26h0Z"/>
    <path d="M111.99,52.85c7.85-.23,15.72-.13,23.57.31-7.87.24-15.71.13-23.57-.31h0Z"/>
    <path d="M117.6,55c4.29-.24,8.59-.15,12.87.29-4.3.25-8.59.15-12.87-.29h0Z"/>
    <path d="M121.36,56.7c1.37-.35,2.75-.36,4.12-.02-1.37.35-2.75.36-4.12.02h0Z"/>
    <path d="M115.99,29.74c1.37-.35,2.75-.36,4.12-.02-1.37.35-2.75.36-4.12.02h0Z"/>
    <path d="M103.39,35.25c1.37-.35,2.75-.36,4.12-.02-1.37.35-2.75.36-4.12.02h0Z"/>
  </g>
  <g>
    <path class="st0" d="M45.91,38.22c.41,2.01-1.21,3.56-2.6,3.61-4.48.18-2.69-5.51-4.64-11.05,3.61.68,6.51,3.83,7.24,7.44Z"/>
    <path class="st0" d="M38.85,29.38l.85-5.19.72-4.05c.24-1.38,2.19-2.14,3.22-1.88,1.48.38,2.55,1.97,2.17,3.79-.69,3.29-3.44,6.01-6.95,7.33Z"/>
    <path class="st0" d="M20.87,29.17c-4.48-1.6-8.84-6.94-6.48-10.13.66-.89,2.25-1.45,3.41-.83.96.51,1.64,2.27,1.67,3.36l1.4,7.6Z"/>
    <path class="st0" d="M19.44,39.24c-.3,1.77-1.65,3.06-2.99,2.85-1.42-.23-2.84-1.75-2.64-3.41.45-3.72,3.54-6.62,7.07-7.93l-1.44,8.48Z"/>
    <path class="st0" d="M18.43,29.72c-2.33,1.36-4.58,2.59-6.93,2.67-2.05.06-3.36-1.52-3.29-3.11.08-1.87,1.74-3.16,3.88-2.69,2.31.5,4.42,1.7,6.34,3.14Z"/>
    <path class="st0" d="M51.56,31.07c-1.23,2.79-6.13,1.39-10.12-1.26l6.58-3.02c.74-.34,2.67.34,3.2.92.62.67.74,2.43.33,3.35Z"/>
    <path class="st0" d="M30.07,17.8c-1.97-2.35-3.15-4.62-2.96-7.24.14-1.89,1.93-3.05,3.41-2.88,1.78.22,2.54,1.77,2.54,3.75-.7,2.22-1.54,4.06-2.99,6.37Z"/>
    <path class="st0" d="M32.57,47.23c.54,2.29-.79,3.93-2.45,4.04s-3.44-1.16-3.29-3.36c.17-2.42,1.4-4.65,2.96-6.8,1.2,2.09,2.27,3.94,2.78,6.12Z"/>
    <path class="st0" d="M38.24,40.78c1.35.52,1.82,2.62,1.37,3.51-.64,1.27-2.22,1.74-3.67,1.1-3.02-1.32-4.72-4.19-5.22-7.54l7.52,2.92Z"/>
    <path class="st0" d="M37.94,19.43l-7.24,2.85c.74-3.26,2.14-6.02,4.67-7.52,1.45-.85,3.55-.44,4.07.87.6,1.51.1,3.17-1.5,3.8Z"/>
    <path class="st0" d="M24.07,45.49c-1.26.76-3.1.37-3.73-.55s-.38-3.25.88-3.77l7.62-3.08c-.38,2.96-1.99,5.72-4.77,7.39Z"/>
    <path class="st0" d="M28.88,22.11l-6.91-2.87c-1.53-.64-2.35-2.15-1.95-3.29.57-1.62,2.22-2.35,3.84-1.52,2.7,1.38,4.51,4.44,5.02,7.68Z"/>
    <path class="st0" d="M27.73,34.6c-1.26,2.23-3.56,2.82-6,3.26.25-2.49,1.49-4.93,3.47-6.47.5-.39,2.02.09,2.34.59s.54,1.99.19,2.62Z"/>
    <path class="st0" d="M27.67,24.88c.44.44.29,2.15.08,2.74-.24.67-1.96,1.4-2.56.93-2.15-1.67-3.05-4-3.35-6.49,2.24.54,4.23,1.19,5.84,2.82Z"/>
    <path class="st0" d="M37.92,22.37c-.84,3.98-3.11,7.47-5.46,6.05-.75-.45-1.27-2.37-.68-3.18,1.44-1.96,3.56-2.67,6.14-2.87Z"/>
    <path class="st0" d="M38.02,37.47c-2.64-.15-4.44-.87-6.08-2.63-.57-.62-.38-2.71.29-3.18.91-.64,2.39-.37,3.47.33l2.32,5.48Z"/>
    <circle class="st0" cx="29.67" cy="29.98" r="2.24"/>
  </g>
</svg>