<?xml version="1.0" encoding="UTF-8"?>
<svg id="Capa_1" xmlns="http://www.w3.org/2000/svg" version="1.1" viewBox="0 0 60 60">
  <!-- Generator: Adobe Illustrator 30.3.0, SVG Export Plug-In . SVG Version: 2.1.3 Build 182)  -->
  <defs>
    <style>
      .st0 {
        fill: #c5a059;
      }
    </style>
  </defs>
  <path class="st0" d="M12.67-32.97c-.37.82-1.79,2.9-2.59,2.62-.04-.81-.07-1.52-.4-2.25-.9,1.2-1.18,2.84-.4,4.05.89,1.38,3.1.97,4.68.66,2.51-.49,4.74-.96,7.13.31.25.13.42.3.5.61l-1.96.48c-.85.21-1.66.47-2.4.94-1.07.67-2.15,1.23-3.31,1.73-.43.18-.67.53-.6,1.01l.3,1.94c.1.68.18,1.62-.17,1.85-.08.05-.32.03-.42-.03-1.64-.85-2.86-2.22-3.63-3.89l-1.01-2.18c-.18-.38-.52-.63-.86-1.01l-.5,1.11c-.04.08-.14.2-.21.22-.32.1-.79-1.11-.82-1.81l-.07-1.8c-1.04-2.84-.31-6.01,1.92-8.12l-1.19.16c.15-.45.33-.83.56-1.21.7-1.18,1.21-2.28.73-3.64-.41-1.17,1.83-1.08,3.24-.66l2.73.81,1.34-.71.47-.8,1.35-.02.43-.71h1.51s.58-.7.58-.7l1.82.14.48-.72,1.84.19c.2-.16.38-.39.57-.65l1.73.34c.69.13.51-.78,1.25-.56l1.73.52.73-.62,2.16.78c.24-.1.46-.25.73-.46l1.98.84c.34.15.62-.56,1.18-.19l1.29.85.62-.28.97.67c.47.32.61-.35,1.13.1l.86.74.62-.25,1.42,1.03c.91.67,1.87,1.18,2.89,1.69,1.42.71,2.67,1.59,3.79,2.72,1.25,1.27,2.67,2.2,4.41,2.63.38.1.74.42.72.81-.07,1.01-1.75,1.13-2.88,1.12l-.26.68c-.4,1.06-.86.93-.85.84.04-.27.44-.74.51-1.55-.32.15-.49.39-.6.69-.24.66-.74,1.31-1.17,1.03.26-.34.45-.63.6-.99l.33-.8-1.86-.21c-.14.32-.32.51-.69.53l-1.2-.2-2.52-.27-4.48-.58c-1.1.95-2.26,1.74-3.61,2.23s-3.85.91-3.37-.09l.78-1.64.78-1.47-5-1.02c-2.52-.51-5.01-.79-7.55-.86-.56.7-1.13,1.32-1.78,1.89-.8.62-1.62,1.13-2.61,1.35l-.33-.07c-.07-.02-.1-.23-.1-.3l.07-1.56c.02-.36.06-.66.21-1.04-1.15.25-2.26.54-3.36.93l-.92,2.04ZM40.97-38.29c-.68.68-.99,1.29-1.03,2.09-.03.79.8,1.39.55,1.73l-.45.6,1.87.25c-.59-.73-.9-1.55-1.05-2.45-.21-1.33,1.37-2.25,2.52-2.8-.28-.13-.61-.21-.88-.15l-.99.22-.03-.71-1.22.31.03-.62-1.12.34v-.75s-1.54.5-1.54.5v-.8s-1.5.53-1.5.53l.08-.84-1.42.62.02-.76c-.2.03-.46.08-.62.16l-.87.44-.06-.87-1.55.72-.06-.8c-.11-.01-.38.05-.51.11l-1.05.56-.1-.79c-.31.06-.58.18-.85.33l-.69.38-.11-.5c-.02-.08-.05-.28-.13-.29-.06,0-.23.03-.29.06l-1.1.64-.18-.72-1.05.59c-.07.04-.3.18-.31.1l-.07-.29c-.02-.08-.04-.22-.1-.22-.04,0-.19.03-.24.06l-.83.57-.24-.53-.96.68-.22-.5c-.55.16-1.07.86-1.12.61l-.03-.17c-.01-.07-.08-.26-.15-.24-.05.01-.18.07-.23.1l-.86.62-.26-.53-1.11.8-.12-.31c-.02-.05-.2-.11-.25-.06l-.83.64-.25-.33-.74.64-.27-.28-.66.62-.42-.15-.75.63-.3-.16-.72.61c-.16-.12-.3-.12-.41-.02l-.53.5c-.28-.03-.43.01-.58.21s-.4.29-.58.43c-1.69,1.26-3.35,3.13-3.25,5.34.43-2.32,1.97-3.94,3.96-5.19,5.73-3.59,14.06-4.03,20.67-3.12,2.76.38,5.44.9,8.13,1.63ZM48.75-33.43l3.1.29c1.09.1,2.25-.45,1.99-.53l-.21-.06c-1.23.1-2.41.03-3.63-.18-.95-.17-1.84-.25-2.81-.21-.09,0-.28-.14-.25-.24.33-1.14,0-2.4-.94-3.13-.58-.45-1.22-.74-1.88-1.05-.59.33-1.09.66-1.56,1.1-1.04.95-.86,2.15.02,3.21.29.35.68.56,1.15.67-.31-.71-.23-1.36.11-1.99.17-.31.37-.59.76-.72-.16.53-.33.95-.36,1.44-.05.68.33,1.26.99,1.45,1.49.43,1.93-.21,3.53-.06ZM28.81-36.02l5.71,1.18c1.16-.96,2.74.4,4.08-.95l-5.36-.82c-2.07-.32-4.05-.75-6.13-1-1.52-.19-2.97-.23-4.5-.24-3.49,0-7.91.71-10.84,2.57-.7.45-1.34.93-1.82,1.6.82-.6,1.59-1.14,2.51-1.52,1.4-.58,2.78-1.05,4.29-1.28,3.94-.59,8.11-.36,12.07.46ZM48.85-35.72c0-.29-.23-.52-.52-.52s-.52.23-.52.52.23.52.52.52.52-.23.52-.52ZM50.05-34.98c.17-.28-.16-.61-.41-.57-.06.11-.03.37.05.49.05.09.3.17.36.08ZM17.62-27.36c-1.12.06-2.07.36-3.08.61l-2.31.57c-1.17.14-2.32.03-3.31-.62-1.47-.95-2.37-2.41-2.81-4.09-.06,1.76.83,3.3,2.01,4.52,1.52,1.57,3.42,1.3,5.35.48,1.39-.59,2.75-1.09,4.16-1.47Z"/>
  <g>
    <path class="st0" d="M119.56-43.05c.36,1.76-1.06,3.12-2.28,3.16-3.92.15-2.36-4.83-4.06-9.68,3.16.6,5.7,3.35,6.34,6.52Z"/>
    <path class="st0" d="M113.38-50.79l.74-4.55.63-3.55c.21-1.21,1.92-1.88,2.82-1.64,1.29.34,2.23,1.73,1.9,3.32-.6,2.88-3.01,5.26-6.09,6.42Z"/>
    <path class="st0" d="M97.64-50.98c-3.92-1.41-7.74-6.08-5.67-8.87.58-.78,1.97-1.27,2.99-.72.84.45,1.44,1.98,1.46,2.94l1.22,6.65Z"/>
    <path class="st0" d="M96.38-42.15c-.26,1.55-1.44,2.68-2.62,2.49-1.24-.2-2.49-1.53-2.31-2.98.4-3.26,3.1-5.8,6.19-6.94l-1.26,7.43Z"/>
    <path class="st0" d="M95.49-50.5c-2.04,1.19-4.01,2.27-6.07,2.33-1.8.05-2.94-1.33-2.88-2.73.07-1.64,1.52-2.77,3.4-2.36,2.02.44,3.87,1.49,5.56,2.75Z"/>
    <path class="st0" d="M124.51-49.31c-1.08,2.44-5.37,1.22-8.86-1.1l5.77-2.64c.65-.3,2.33.3,2.81.81.55.59.65,2.13.29,2.93Z"/>
    <path class="st0" d="M105.69-60.93c-1.72-2.06-2.76-4.05-2.59-6.34.12-1.66,1.69-2.68,2.99-2.52,1.56.19,2.22,1.55,2.22,3.28-.61,1.94-1.35,3.56-2.61,5.58Z"/>
    <path class="st0" d="M107.88-35.16c.47,2.01-.69,3.44-2.14,3.54s-3.01-1.02-2.88-2.94c.15-2.12,1.22-4.07,2.59-5.96,1.05,1.83,1.99,3.45,2.43,5.36Z"/>
    <path class="st0" d="M112.85-40.81c1.18.46,1.6,2.29,1.2,3.07-.56,1.11-1.95,1.52-3.21.97-2.64-1.16-4.14-3.67-4.57-6.6l6.58,2.56Z"/>
    <path class="st0" d="M112.58-59.51l-6.34,2.5c.65-2.86,1.87-5.27,4.09-6.58,1.27-.75,3.11-.39,3.56.76.52,1.32.09,2.78-1.31,3.33Z"/>
    <path class="st0" d="M100.43-36.69c-1.1.66-2.72.32-3.27-.48s-.34-2.85.77-3.3l6.67-2.69c-.34,2.6-1.74,5.01-4.17,6.47Z"/>
    <path class="st0" d="M104.64-57.16l-6.05-2.52c-1.34-.56-2.06-1.88-1.71-2.88.5-1.42,1.94-2.06,3.36-1.33,2.36,1.21,3.95,3.89,4.39,6.73Z"/>
    <path class="st0" d="M103.64-46.22c-1.11,1.95-3.12,2.47-5.25,2.86.22-2.18,1.3-4.31,3.04-5.67.43-.34,1.77.08,2.05.52s.47,1.75.16,2.29Z"/>
    <path class="st0" d="M103.59-54.73c.38.39.25,1.89.07,2.4-.21.59-1.71,1.23-2.24.81-1.88-1.46-2.67-3.5-2.94-5.68,1.96.47,3.7,1.04,5.11,2.47Z"/>
    <path class="st0" d="M112.57-56.93c-.74,3.49-2.72,6.54-4.78,5.29-.66-.4-1.12-2.07-.59-2.78,1.26-1.71,3.12-2.33,5.38-2.51Z"/>
    <path class="st0" d="M112.65-43.71c-2.31-.13-3.89-.76-5.33-2.31-.5-.54-.33-2.37.25-2.78.8-.56,2.1-.33,3.04.29l2.03,4.8Z"/>
    <circle class="st0" cx="105.34" cy="-50.27" r="1.96"/>
  </g>
  <g>
    <g>
      <path d="M17.26,54.61c-.78.88-1.98.84-2.94.52-2.84-.94-2.05-4.6-.45-7.67l1.4-2.7,2.53,6.2c.43,1.06.28,2.71-.54,3.64Z"/>
      <path d="M17.31,38.87l-2.1,5.23c-2.27-3.28-4.34-8.73-1.35-10.26,1.07-.55,2.57-.5,3.34.64s.69,2.95.11,4.39Z"/>
      <path d="M14.7,44.64c-3.49,1.61-8.38,3.92-10.16,1.42-.69-.96-.45-2.21.18-3.15,1.31-1.95,4.5-1.08,7.07.07l2.91,1.65Z"/>
      <path d="M22.71,47.02c-2.55-.38-4.72-1.37-7.06-2.53,2.24-1.64,4.72-2.69,7.48-2.85,1.85-.11,2.97,1.2,2.98,2.84s-1.44,2.84-3.41,2.54Z"/>
      <circle cx="8.13" cy="37.82" r="1.73"/>
      <circle cx="21.88" cy="51.08" r="1.7"/>
      <circle cx="21.29" cy="37.94" r="1.68"/>
      <circle cx="8.12" cy="51.18" r="1.67"/>
    </g>
    <g>
      <path d="M54.24,49.01c.21,1.04-.63,1.85-1.35,1.88-2.33.09-1.4-2.87-2.41-5.75,1.88.35,3.39,1.99,3.77,3.87Z"/>
      <path d="M50.57,44.41l.44-2.7.37-2.11c.13-.72,1.14-1.11,1.67-.98.77.2,1.33,1.03,1.13,1.97-.36,1.71-1.79,3.13-3.62,3.81Z"/>
      <path d="M41.21,44.3c-2.33-.83-4.6-3.61-3.37-5.27.34-.46,1.17-.75,1.78-.43.5.27.85,1.18.87,1.75l.73,3.95Z"/>
      <path d="M40.47,49.55c-.16.92-.86,1.59-1.56,1.48-.74-.12-1.48-.91-1.37-1.77.24-1.94,1.84-3.44,3.68-4.12l-.75,4.42Z"/>
      <path d="M39.94,44.59c-1.21.71-2.38,1.35-3.61,1.39-1.07.03-1.75-.79-1.71-1.62.04-.97.9-1.64,2.02-1.4,1.2.26,2.3.88,3.3,1.63Z"/>
      <path d="M57.18,45.29c-.64,1.45-3.19.73-5.27-.65l3.43-1.57c.39-.18,1.39.18,1.67.48.32.35.38,1.26.17,1.74Z"/>
      <path d="M46,38.39c-1.02-1.22-1.64-2.41-1.54-3.77.07-.98,1-1.59,1.77-1.5.93.11,1.32.92,1.32,1.95-.36,1.15-.8,2.11-1.55,3.32Z"/>
      <path d="M47.3,53.7c.28,1.19-.41,2.04-1.27,2.1s-1.79-.61-1.71-1.75c.09-1.26.73-2.42,1.54-3.54.62,1.09,1.18,2.05,1.45,3.18Z"/>
      <path d="M50.25,50.34c.7.27.95,1.36.71,1.83-.33.66-1.16.9-1.91.57-1.57-.69-2.46-2.18-2.72-3.92l3.91,1.52Z"/>
      <path d="M50.09,39.23l-3.77,1.48c.38-1.7,1.11-3.13,2.43-3.91.75-.44,1.85-.23,2.12.45.31.78.05,1.65-.78,1.98Z"/>
      <path d="M42.88,52.79c-.66.39-1.62.19-1.94-.28s-.2-1.69.46-1.96l3.97-1.6c-.2,1.54-1.03,2.98-2.48,3.85Z"/>
      <path d="M45.38,40.63l-3.59-1.49c-.8-.33-1.22-1.12-1.01-1.71.29-.84,1.16-1.22,2-.79,1.4.72,2.35,2.31,2.61,4Z"/>
      <path d="M44.78,47.13c-.66,1.16-1.85,1.47-3.12,1.7.13-1.3.77-2.56,1.81-3.37.26-.2,1.05.04,1.22.31s.28,1.04.1,1.36Z"/>
      <path d="M44.75,42.07c.23.23.15,1.12.04,1.43-.13.35-1.02.73-1.33.48-1.12-.87-1.59-2.08-1.74-3.38,1.17.28,2.2.62,3.04,1.47Z"/>
      <path d="M50.09,40.77c-.44,2.07-1.62,3.89-2.84,3.15-.39-.24-.66-1.23-.35-1.65.75-1.02,1.85-1.39,3.2-1.49Z"/>
      <path d="M50.13,48.62c-1.37-.08-2.31-.45-3.17-1.37-.3-.32-.2-1.41.15-1.65.47-.33,1.25-.19,1.81.17l1.21,2.85Z"/>
      <circle cx="45.79" cy="44.73" r="1.17"/>
    </g>
    <g>
      <path d="M14.62,13.82l-2.5-5.48c-.61-1.34-.02-2.74,1.07-3.6.85-.68,2-.7,2.85-.15s1.44,1.91,1.01,3.02l-2.43,6.22Z"/>
      <path d="M15.87,28.09c-1.06.58-2.28.21-2.97-.43-2.1-1.95,0-5.38,1.73-8.72l2.34,5.56c.51,1.22.1,2.93-1.11,3.59Z"/>
      <path d="M12,20.58c-.21,1.6-1.39,2.99-2.74,3.63-1.47.69-3.14-.2-3.56-1.65-.39-1.36.55-2.79,2.06-3.22,1.7-.47,2.93-1.39,4.72-2.43l-.48,3.67Z"/>
      <path d="M12.45,15.63c-1.88-1.05-3.31-1.88-5.07-2.56-1.27-.49-1.96-1.67-1.65-2.94.28-1.13,1.42-2.13,2.9-1.89,2.52.41,3.94,4.11,3.81,7.39Z"/>
      <path d="M17.68,17.5c2.79,2.15,5.47,1.67,5.66,4.22.08,1.13-.62,2.39-1.89,2.61-2.94.51-5.15-3.52-4.79-7.16.27.02.83.18,1.02.32Z"/>
      <path d="M16.74,15.65c-.73-3.58,1.73-7.97,4.51-7.37,1.13.24,1.81,1.13,1.91,2.11.1,1.07-.47,2.1-1.42,2.68-1.81.45-3.09,1.26-5,2.58Z"/>
      <path d="M10.63,16.45l-4.79,2.09c-.67.29-2.1.27-2.68-.13-1.3-.91-1.23-2.54-.56-3.61s2.44-1.54,3.68-.83l4.35,2.49Z"/>
      <path d="M25.55,18.31c-.92.65-2.44.41-3.33,0l-3.99-1.87,2.81-1.74c1.34-.83,3-1.57,4.54-.49,1.2.83,1.37,3.12-.03,4.12Z"/>
      <circle cx="14.53" cy="16.7" r="1.2"/>
    </g>
    <g>
      <path d="M55.05,25.42c-5.08-.53-7.94-3.35-8.84-8.22,3.51-.18,6.53,1.9,7.88,4.93l.96,3.29Z"/>
      <path d="M52.49,13.2c-1.79,1.55-3.75,2.56-6.21,3.01.46-4.88,3.28-8.02,8.34-8.69.06,2.09-.65,4.05-2.13,5.68Z"/>
      <path d="M45.38,16.2c-1.81-.15-3.07-.56-4.56-1.19-2.25-1.65-3.95-3.92-4.4-6.95,3.11-.24,5.92,1.45,7.42,4.15.65,1.25,1.05,2.21,1.53,3.99Z"/>
      <path d="M45.44,17.05c-.1,4.96-3.6,7.8-8.43,8.89.59-5.21,3.27-7.86,8.43-8.89Z"/>
      <circle cx="46.21" cy="26.06" r="2.54"/>
      <path d="M45.27,9.96c-1.61-.31-2.46-1.9-2.1-3.2.42-1.48,2.03-2.42,3.49-1.67,1.15.59,1.67,1.9,1.32,3.1-.28.99-1.38,2.02-2.71,1.77Z"/>
      <circle cx="36.46" cy="16.7" r="2.5"/>
      <circle cx="55.41" cy="16.28" r="2.47"/>
    </g>
  </g>
</svg>